<!-- Generated by IcoMoon.io -->
<svg version="1.1" xmlns="http://www.w3.org/2000/svg" width="24" height="24" viewBox="0 0 24 24">
<title>droplet</title>
<rect fill="#2b2e3b" x="0" y="0" width="24" height="24"></rect>
<path fill="#74b1be" d="M20.265 11.090c-1.541-4.299-4.807-8.16-8.265-11.090-3.457 2.93-6.724 6.79-8.265 11.090-0.953 2.659-1.047 5.544 0.295 8.095 1.543 2.933 4.655 4.815 7.97 4.815s6.426-1.882 7.97-4.815c1.342-2.551 1.248-5.437 0.295-8.095zM17.315 17.788c-1.027 1.951-3.113 3.212-5.315 3.212-1.292 0-2.544-0.434-3.565-1.187 0.31 0.040 0.624 0.062 0.94 0.062 2.752 0 5.359-1.575 6.642-4.013 1.052-1.999 0.96-4.075 0.56-5.727 0.341 0.66 0.631 1.317 0.864 1.967 0.53 1.478 0.938 3.664-0.126 5.686z"></path>
</svg>
